<svg width="291" height="79" viewBox="0 0 291 79" fill="none" xmlns="http://www.w3.org/2000/svg">
<path d="M269.973 0.327425C267.845 8.29027 260.595 15.345 253.089 18.4358C251.861 18.9152 250.637 19.3166 249.292 19.531L249 19.2153C250.247 17.972 252.781 15.5087 254.059 14.2926C258.284 10.2664 262.665 6.22453 267.023 2.3347L269.681 0.0117188L269.973 0.327425Z" fill="black"/>
<path d="M270.142 18H268.677C263.559 18 259.41 22.2533 259.41 27.5C259.41 32.7467 263.559 37 268.677 37H270.142C275.26 37 279.41 32.7467 279.41 27.5C279.41 22.2533 275.26 18 270.142 18Z" fill="black" stroke="black" stroke-width="6.14" stroke-miterlimit="10"/>
<path d="M290.077 19.5193C281.978 17.9875 274.405 11.2758 270.768 4.02234C270.199 2.83356 269.708 1.6409 269.396 0.315707L269.689 0C271.022 1.1537 273.664 3.49616 274.97 4.68104C279.296 8.59815 283.65 12.6673 287.855 16.7247L290.369 19.2036L290.077 19.5193Z" fill="black"/>
<path d="M257.41 15H283.41" stroke="black" stroke-width="4" stroke-miterlimit="10"/>
<path d="M25.4 32H30V67H25.4V51.25H8.4V67H3.75V32H8.4V46.85H25.4V32ZM54.2902 42H58.6402V67H54.2902V63.4C52.5236 66.2333 49.8236 67.65 46.1902 67.65C43.2569 67.65 40.9069 66.7333 39.1402 64.9C37.3736 63.0333 36.4902 60.5167 36.4902 57.35V42H40.8402V57.1C40.8402 59.1333 41.3902 60.7167 42.4902 61.85C43.5902 62.95 45.1069 63.5 47.0402 63.5C49.2069 63.5 50.9569 62.8333 52.2902 61.5C53.6236 60.1333 54.2902 58.05 54.2902 55.25V42ZM68.9641 48.75C68.9641 49.7167 69.4474 50.5 70.4141 51.1C71.3807 51.6667 72.5474 52.1333 73.9141 52.5C75.2807 52.8333 76.6474 53.2333 78.0141 53.7C79.3807 54.1333 80.5474 54.9 81.5141 56C82.4807 57.0667 82.9641 58.45 82.9641 60.15C82.9641 62.4167 82.0807 64.2333 80.3141 65.6C78.5807 66.9667 76.3474 67.65 73.6141 67.65C71.1807 67.65 69.0974 67.1167 67.3641 66.05C65.6307 64.9833 64.3974 63.5667 63.6641 61.8L67.4141 59.65C67.8141 60.85 68.5641 61.8 69.6641 62.5C70.7641 63.2 72.0807 63.55 73.6141 63.55C75.0474 63.55 76.2307 63.2833 77.1641 62.75C78.0974 62.1833 78.5641 61.3167 78.5641 60.15C78.5641 59.1833 78.0807 58.4167 77.1141 57.85C76.1474 57.25 74.9807 56.7833 73.6141 56.45C72.2474 56.0833 70.8807 55.6667 69.5141 55.2C68.1474 54.7333 66.9807 53.9667 66.0141 52.9C65.0474 51.8333 64.5641 50.4667 64.5641 48.8C64.5641 46.6333 65.3974 44.85 67.0641 43.45C68.7641 42.05 70.8807 41.35 73.4141 41.35C75.4474 41.35 77.2474 41.8167 78.8141 42.75C80.4141 43.65 81.6141 44.9167 82.4141 46.55L78.7641 48.6C77.8641 46.4667 76.0807 45.4 73.4141 45.4C72.1807 45.4 71.1307 45.7 70.2641 46.3C69.3974 46.8667 68.9641 47.6833 68.9641 48.75ZM100.738 46.2H94.0879V59.75C94.0879 60.9833 94.3212 61.8667 94.7879 62.4C95.2879 62.9 96.0379 63.1667 97.0379 63.2C98.0379 63.2 99.2712 63.1667 100.738 63.1V67C96.9379 67.5 94.1546 67.2 92.3879 66.1C90.6212 64.9667 89.7379 62.85 89.7379 59.75V46.2H84.7879V42H89.7379V36.3L94.0879 35V42H100.738V46.2ZM105.888 67V30.5H110.238V67H105.888ZM119.924 56.5C120.358 58.7333 121.374 60.4667 122.974 61.7C124.608 62.9333 126.608 63.55 128.974 63.55C132.274 63.55 134.674 62.3333 136.174 59.9L139.874 62C137.441 65.7667 133.774 67.65 128.874 67.65C124.908 67.65 121.674 66.4167 119.174 63.95C116.708 61.45 115.474 58.3 115.474 54.5C115.474 50.7333 116.691 47.6 119.124 45.1C121.558 42.6 124.708 41.35 128.574 41.35C132.241 41.35 135.224 42.65 137.524 45.25C139.858 47.8167 141.024 50.9167 141.024 54.55C141.024 55.1833 140.974 55.8333 140.874 56.5H119.924ZM128.574 45.45C126.241 45.45 124.308 46.1167 122.774 47.45C121.241 48.75 120.291 50.5 119.924 52.7H136.624C136.258 50.3333 135.324 48.5333 133.824 47.3C132.324 46.0667 130.574 45.45 128.574 45.45ZM168.125 32H172.725V67H168.125V51.25H151.125V67H146.475V32H151.125V46.85H168.125V32ZM197.015 42H201.365V67H197.015V63.4C195.248 66.2333 192.548 67.65 188.915 67.65C185.982 67.65 183.632 66.7333 181.865 64.9C180.098 63.0333 179.215 60.5167 179.215 57.35V42H183.565V57.1C183.565 59.1333 184.115 60.7167 185.215 61.85C186.315 62.95 187.832 63.5 189.765 63.5C191.932 63.5 193.682 62.8333 195.015 61.5C196.348 60.1333 197.015 58.05 197.015 55.25V42ZM221.588 46.2H214.938V59.75C214.938 60.9833 215.171 61.8667 215.638 62.4C216.138 62.9 216.888 63.1667 217.887 63.2C218.887 63.2 220.121 63.1667 221.588 63.1V67C217.788 67.5 215.004 67.2 213.238 66.1C211.471 64.9667 210.588 62.85 210.588 59.75V46.2H205.638V42H210.588V36.3L214.938 35V42H221.588V46.2ZM229.267 48.75C229.267 49.7167 229.75 50.5 230.717 51.1C231.683 51.6667 232.85 52.1333 234.217 52.5C235.583 52.8333 236.95 53.2333 238.317 53.7C239.683 54.1333 240.85 54.9 241.817 56C242.783 57.0667 243.267 58.45 243.267 60.15C243.267 62.4167 242.383 64.2333 240.617 65.6C238.883 66.9667 236.65 67.65 233.917 67.65C231.483 67.65 229.4 67.1167 227.667 66.05C225.933 64.9833 224.7 63.5667 223.967 61.8L227.717 59.65C228.117 60.85 228.867 61.8 229.967 62.5C231.067 63.2 232.383 63.55 233.917 63.55C235.35 63.55 236.533 63.2833 237.467 62.75C238.4 62.1833 238.867 61.3167 238.867 60.15C238.867 59.1833 238.383 58.4167 237.417 57.85C236.45 57.25 235.283 56.7833 233.917 56.45C232.55 56.0833 231.183 55.6667 229.817 55.2C228.45 54.7333 227.283 53.9667 226.317 52.9C225.35 51.8333 224.867 50.4667 224.867 48.8C224.867 46.6333 225.7 44.85 227.367 43.45C229.067 42.05 231.183 41.35 233.717 41.35C235.75 41.35 237.55 41.8167 239.117 42.75C240.717 43.65 241.917 44.9167 242.717 46.55L239.067 48.6C238.167 46.4667 236.383 45.4 233.717 45.4C232.483 45.4 231.433 45.7 230.567 46.3C229.7 46.8667 229.267 47.6833 229.267 48.75Z" fill="black"/>
</svg>
